<svg xmlns="http://www.w3.org/2000/svg" fill-rule="evenodd" stroke-linejoin="round" stroke-width="28.2" baseProfile="tiny" preserveAspectRatio="xMidYMid" version="1.2" viewBox="0 0 1152 1152"><defs><path id="b" fill="#FFF" d="M200 0C100 0 0 100 0 200v801c0 100 100 200 200 200s200-100 200-200V200C400 100 300 0 200 0Z" transform="scale(.10077)"/><path id="c" fill="#FFF" d="M200 0C100 0 0 100 0 200v1500c0 100 100 201 200 201s201-101 201-201V200C401 100 300 0 200 0Z" transform="scale(.10077)"/><circle id="a" cx="0" cy="0" r="20.154"/><path id="d" fill="#FFF" d="M538.34 396.6v51.3h-51.3v128.17c0 9.47-2.11 17.44-6.85 25.6a49.5 49.5 0 0 1-18.74 18.84c-8.27 4.64-16.23 6.85-25.7 6.85 9.47 0 17.43 2.12 25.7 6.86a48.82 48.82 0 0 1 18.74 18.84 48.55 48.55 0 0 1 6.85 25.6v128.18h51.3v51.19h-51.3c-27.4-6.86-51.29-22.98-51.29-51.2V704.26c0-9.47-2.11-17.43-6.85-25.6-4.64-8.26-10.58-14.1-18.74-18.84-8.17-4.73-16.23-6.75-25.7-6.75h-25.6v-51.4h25.6a48.9 48.9 0 0 0 25.7-6.84c8.16-4.74 14.1-10.59 18.74-18.75a48.65 48.65 0 0 0 6.85-25.7V447.9a49 49 0 0 1 6.95-25.7 47.89 47.89 0 0 1 18.75-18.74 49.75 49.75 0 0 1 25.6-6.85h51.29Z"/></defs><path fill="#FFF" d="M1087.93 361.53v35.27H422.45V64.06h368.01c186.33 0 297.47 111.15 297.47 297.47ZM422.45 64.06v1023.82h-60.87c-186.32 0-297.47-111.15-297.47-297.47V361.53c0-186.32 111.15-297.47 297.47-297.47h60.87Zm665.48 691.18v35.17c0 186.32-111.14 297.47-297.47 297.47H422.45V755.24h665.48Zm0-358.44H422.45v358.44h665.48V396.8Z"/><path fill="#0E1012" d="M1038.76 382.09v31.94h-601.5v323.88h601.5v31.94c0 168.39-100.47 268.86-268.86 268.86H382.14c-34.76 0-66.7-4.23-95.33-12.6v-759.3h732.8c12.6 33.66 19.15 72.25 19.15 115.28Zm0 31.94h-601.5v323.88h601.5V414.03Z"/><use fill="#F73876" href="#a" transform="translate(564.64 513.7)"/><use fill="#D16EA1" href="#a" transform="translate(635.18 513.7)"/><use fill="#ADA2CB" href="#a" transform="translate(715.8 513.7)"/><use fill="#89D6F4" href="#a" transform="translate(786.13 513.7)"/><use fill="#F73876" href="#a" transform="translate(564.64 594.32)"/><use fill="#ADA2CB" href="#a" transform="translate(715.8 594.32)"/><use href="#b" transform="translate(544.38 644.7)"/><use href="#c" transform="translate(615.02 574.16)"/><use href="#b" transform="translate(695.54 644.7)"/><use href="#c" transform="translate(766.08 574.16)"/><use href="#d"/><use href="#d" transform="translate(1333 0) scale(-1 1)"/><path fill="#3479F3" d="M286.81 1026.11C176.47 994.37 113.3 903.58 113.3 769.95V382.1c0-133.62 63.18-224.52 173.52-256.26v900.28Z"/><path fill="#7A76FF" d="M132.43 266.8c36.58-97.84 124.35-153.56 249.71-153.56h387.87c125.25 0 213.02 55.72 249.6 153.57H132.43Z"/></svg>